<svg width="40" height="40" viewBox="0 0 40 40" fill="none" xmlns="http://www.w3.org/2000/svg"><path opacity="0.1" fill-rule="evenodd" clip-rule="evenodd" d="M35 23H21C20.4477 23 20 22.5523 20 22V15.5C20 11.3579 23.3579 8 27.5 8H28.5C32.6421 8 36 11.3579 36 15.5V22C36 22.5523 35.5523 23 35 23ZM13 30H1V39H13V30ZM1 22H13V27H1V22ZM13 14H1V19H13V14Z" fill="#b41818"></path><path fill-rule="evenodd" clip-rule="evenodd" d="M3 2C3 0.895431 3.89543 0 5 0H14C15.1046 0 16 0.895431 16 2C16 4.08697 14.9345 5.92508 13.3178 7H27C27.1087 7 27.2153 7.00867 27.3193 7.02535C27.544 7.00855 27.771 7 28 7C32.9706 7 37 11.0294 37 16V16.882L37.7889 17.2764C39.144 17.954 40 19.339 40 20.8541V24C40 26.4198 38.281 28.4381 35.9976 28.9005C35.9992 28.9334 36 28.9666 36 29V38C36 39.1046 35.1046 40 34 40H33.4556C32.3863 40 31.5062 39.159 31.4576 38.0908L31.0485 29.0908C31.0472 29.0604 31.0465 29.0301 31.0464 29H29V38C29 39.1046 28.1046 40 27 40H22.5444H22H20.5H13H2C0.89543 40 0 39.1046 0 38V27V19V12C0 11.6357 0.0973946 11.2942 0.267565 11C0.0973946 10.7058 0 10.3643 0 10V9C0 7.89543 0.895431 7 2 7H5.6822C4.06551 5.92508 3 4.08697 3 2ZM33.0465 27H34H35C36.6569 27 38 25.6569 38 24V20.8541C38 20.1367 37.6161 19.4776 37 19.122V24C37 25.1046 36.1046 26 35 26H21C19.8954 26 19 25.1046 19 24V19.122C18.3839 19.4776 18 20.1367 18 20.8541V24C18 25.6569 19.3431 27 21 27H22H22.9535H33.0465ZM33.0465 29L33.4556 38H34V29H33.0465ZM27 38H24.5465L24.9515 29.0908C24.9528 29.0604 24.9535 29.0301 24.9536 29H27V38ZM22 29H22.9535L22.5444 38H22V29ZM20 29V38H14V27V19V12H19.9355C19.3367 13.205 19 14.5632 19 16V16.882L18.2111 17.2764C16.856 17.954 16 19.339 16 20.8541V24C16 26.4198 17.719 28.4381 20.0024 28.9005C20.0008 28.9334 20 28.9666 20 29ZM21.2917 10C21.6145 9.63928 21.9661 9.30475 22.3427 9H2V10H13H21H21.2917ZM28 9C24.134 9 21 12.134 21 16V17.5V24H35V17.5V16C35 12.134 31.866 9 28 9ZM12 12H2L2 18H12V12ZM14 2H5C5 4.20914 6.79086 6 9 6H10C12.2091 6 14 4.20914 14 2ZM12 28V38H2V28H12ZM12 26H2V20H12V26ZM5 14C5 13.4477 5.44772 13 6 13H8C8.55229 13 9 13.4477 9 14C9 14.5523 8.55229 15 8 15H6C5.44772 15 5 14.5523 5 14ZM5 22C5 21.4477 5.44772 21 6 21H8C8.55229 21 9 21.4477 9 22C9 22.5523 8.55229 23 8 23H6C5.44772 23 5 22.5523 5 22ZM6 29C5.44772 29 5 29.4477 5 30C5 30.5523 5.44772 31 6 31H8C8.55229 31 9 30.5523 9 30C9 29.4477 8.55229 29 8 29H6ZM27 15C27 15.5523 26.5523 16 26 16C25.4477 16 25 15.5523 25 15C25 14.4477 25.4477 14 26 14C26.5523 14 27 14.4477 27 15ZM26 20C26.5523 20 27 19.5523 27 19C27 18.4477 26.5523 18 26 18C25.4477 18 25 18.4477 25 19C25 19.5523 25.4477 20 26 20ZM31 15C31 15.5523 30.5523 16 30 16C29.4477 16 29 15.5523 29 15C29 14.4477 29.4477 14 30 14C30.5523 14 31 14.4477 31 15ZM30 20C30.5523 20 31 19.5523 31 19C31 18.4477 30.5523 18 30 18C29.4477 18 29 18.4477 29 19C29 19.5523 29.4477 20 30 20Z" fill="#b41818"></path></svg>
