<svg width="40" height="40" viewBox="0 0 40 40" fill="none" xmlns="http://www.w3.org/2000/svg"><path fill-rule="evenodd" clip-rule="evenodd" d="M1 23H27H39V35H27H1V30H27V28H1V23Z" fill="#b41818" fill-opacity="0.1"></path><path fill-rule="evenodd" clip-rule="evenodd" d="M8 0C6.34315 0 5 1.34315 5 3V15C5 16.6569 6.34315 18 8 18H8.38197L7.38197 20H2C0.895431 20 0 20.8954 0 22V28V34C0 35.1046 0.895432 36 2 36H3V38C3 39.1046 3.89543 40 5 40H5.21922C6.13696 40 6.93692 39.3754 7.15951 38.4851L7.65951 36.4851C7.70031 36.3219 7.71988 36.1593 7.7202 36H27H32.2798C32.2801 36.1593 32.2997 36.3219 32.3405 36.4851L32.8405 38.4851C33.0631 39.3754 33.863 40 34.7808 40H35C36.1046 40 37 39.1046 37 38V36H38C39.1046 36 40 35.1046 40 34V22C40 20.8954 39.1046 20 38 20H32.618L31.618 18H32C33.6569 18 35 16.6569 35 15V3C35 1.34315 33.6569 0 32 0H8ZM35 34H34.2808H28V28V22H31V23C31 23.5523 31.4477 24 32 24H34C34.5523 24 35 23.5523 35 23V22H38V34H35ZM34.7808 38L34.2808 36H35V38H34.7808ZM5.71922 36H5V38H5.21922L5.71922 36ZM5.71922 34H26V29H16V30C16 30.5523 15.5523 31 15 31H13C12.4477 31 12 30.5523 12 30V29H2V34H5H5.71922ZM30.382 20L29.382 18H10.618L9.61803 20H27H30.382ZM7 3C7 2.44772 7.44772 2 8 2H32C32.5523 2 33 2.44772 33 3V15C33 15.5523 32.5523 16 32 16H30H10H8C7.44772 16 7 15.5523 7 15V3ZM16 23V22H26V27H2V22H12V23C12 23.5523 12.4477 24 13 24H15C15.5523 24 16 23.5523 16 23ZM16.6594 10.8349C16.2689 11.2255 16.2689 11.8586 16.6594 12.2492C17.05 12.6397 17.6831 12.6397 18.0737 12.2492L23.2015 7.12131C23.592 6.73079 23.592 6.09762 23.2015 5.7071C22.811 5.31657 22.1778 5.31657 21.7873 5.7071L16.6594 10.8349ZM21.6157 12.2492C21.2252 11.8586 21.2252 11.2255 21.6157 10.8349L26.7436 5.7071C27.1341 5.31657 27.7673 5.31657 28.1578 5.7071C28.5483 6.09762 28.5483 6.73079 28.1578 7.12131L23.03 12.2492C22.6394 12.6397 22.0063 12.6397 21.6157 12.2492ZM11.7071 10.8349C11.3166 11.2255 11.3166 11.8586 11.7071 12.2492C12.0976 12.6397 12.7308 12.6397 13.1213 12.2492L18.2452 7.12528C18.6357 6.73476 18.6357 6.10159 18.2452 5.71107C17.8547 5.32054 17.2215 5.32055 16.831 5.71107L11.7071 10.8349Z" fill="#b41818"></path></svg>
