<svg width="40" height="40" viewBox="0 0 40 40" fill="none" xmlns="http://www.w3.org/2000/svg"><path fill-rule="evenodd" clip-rule="evenodd" d="M17 4H28V10H17V4ZM16 13H28V19H16V13ZM28 22H16V39H28V22Z" fill="#b41818" fill-opacity="0.1"></path><path fill-rule="evenodd" clip-rule="evenodd" d="M2 0C0.895431 0 0 0.89543 0 2V9C0 10.1046 0.89543 11 2 11H3V12C3 12.5523 3.44772 13 4 13C4.55228 13 5 12.5523 5 12V11H7V12C7 12.5523 7.44772 13 8 13C8.55229 13 9 12.5523 9 12V11H11V12C11 12.5523 11.4477 13 12 13C12.5523 13 13 12.5523 13 12V11H15V18V19V20V25H2C0.895431 25 0 25.8954 0 27V28V34V39C0 39.5523 0.447715 40 1 40C1.55228 40 2 39.5523 2 39V35H15V38C15 39.1046 15.8954 40 17 40H27H28H29H38C39.1046 40 40 39.1046 40 38V35V5V2C40 0.895432 39.1046 0 38 0H29H28H27H17H16H15H2ZM27 9H17V2H27V5V9ZM29 10V9V5H38V35H29V20V19V18V11V10ZM17 20H27V35V38H17V20ZM2 9H15V2H2V9ZM27 18H17V11H27V18ZM29 38H38V37H29V38ZM15 33V30H2V33H15ZM15 28V27H2V28H15ZM29 3V2L38 2V3H29ZM23 3C23.5523 3 24 3.44772 24 4C24 4.55228 23.5523 5 23 5L21 5C20.4477 5 20 4.55229 20 4C20 3.44772 20.4477 3 21 3L23 3ZM24 13C24 12.4477 23.5523 12 23 12H21C20.4477 12 20 12.4477 20 13C20 13.5523 20.4477 14 21 14H23C23.5523 14 24 13.5523 24 13ZM23 21C23.5523 21 24 21.4477 24 22C24 22.5523 23.5523 23 23 23H21C20.4477 23 20 22.5523 20 22C20 21.4477 20.4477 21 21 21H23ZM31.7071 17.5481C31.3166 17.1576 31.3166 16.5245 31.7071 16.1339L34.1339 13.7071C34.5244 13.3166 35.1576 13.3166 35.5481 13.7071C35.9387 14.0976 35.9387 14.7308 35.5481 15.1213L33.1213 17.5481C32.7308 17.9387 32.0976 17.9387 31.7071 17.5481ZM31.7071 20.1339C31.3166 20.5245 31.3166 21.1576 31.7071 21.5481C32.0976 21.9387 32.7308 21.9387 33.1213 21.5481L35.5481 19.1213C35.9387 18.7308 35.9387 18.0976 35.5481 17.7071C35.1576 17.3166 34.5244 17.3166 34.1339 17.7071L31.7071 20.1339Z" fill="#b41818"></path></svg>
